<?xml version="1.0" encoding="UTF-8" standalone="no"?>
<!DOCTYPE svg PUBLIC "-//W3C//DTD SVG 1.1//EN"
 "http://www.w3.org/Graphics/SVG/1.1/DTD/svg11.dtd">
<!-- Generated by graphviz version 2.28.0 (20111001.1807)
 -->
<!-- Title: ER Pages: 1 -->
<svg width="381pt" height="360pt"
 viewBox="0.00 0.00 381.22 359.86" xmlns="http://www.w3.org/2000/svg" xmlns:xlink="http://www.w3.org/1999/xlink">
<g id="graph1" class="graph" transform="scale(1 1) rotate(0) translate(4 355.859)">
<title>ER</title>
<polygon fill="white" stroke="white" points="-4,5 -4,-355.859 378.218,-355.859 378.218,5 -4,5"/>
<!-- Owners -->
<g id="node1" class="node"><title>Owners</title>
<polygon fill="none" stroke="black" points="206.804,-207.945 144.804,-207.945 144.804,-171.945 206.804,-171.945 206.804,-207.945"/>
<text text-anchor="middle" x="175.804" y="-186.245" font-family="Times,serif" font-size="14.00">Owners</text>
</g>
<!-- News_items -->
<g id="node2" class="node"><title>News_items</title>
<polygon fill="none" stroke="black" points="150.431,-271.466 63.931,-271.466 63.931,-235.466 150.431,-235.466 150.431,-271.466"/>
<text text-anchor="middle" x="107.181" y="-249.766" font-family="Times,serif" font-size="14.00">News_items</text>
</g>
<!-- News_items&#45;&#45;Owners -->
<g id="edge48" class="edge"><title>News_items&#45;&#45;Owners</title>
<path fill="none" stroke="black" d="M126.662,-235.433C135.855,-226.924 146.807,-216.786 156.036,-208.243"/>
</g>
<!-- News_items_id -->
<g id="node4" class="node"><title>News_items_id</title>
<ellipse fill="none" stroke="black" cx="30.7674" cy="-222.267" rx="27" ry="18"/>
<text text-anchor="middle" x="30.7674" y="-218.567" font-family="Times,serif" font-size="14.00">id</text>
</g>
<!-- News_items&#45;&#45;News_items_id -->
<g id="edge6" class="edge"><title>News_items&#45;&#45;News_items_id</title>
<path fill="none" stroke="black" d="M63.6171,-235.679C60.2655,-234.311 56.97,-232.965 53.8365,-231.686"/>
</g>
<!-- News_items_owner -->
<g id="node6" class="node"><title>News_items_owner</title>
<ellipse fill="none" stroke="black" cx="69.2976" cy="-328.083" rx="35.1455" ry="18"/>
<text text-anchor="middle" x="69.2976" y="-324.383" font-family="Times,serif" font-size="14.00">owner</text>
</g>
<!-- News_items&#45;&#45;News_items_owner -->
<g id="edge8" class="edge"><title>News_items&#45;&#45;News_items_owner</title>
<path fill="none" stroke="black" d="M98.0105,-271.528C92.0105,-283.346 84.2092,-298.712 78.2529,-310.444"/>
</g>
<!-- News_items_size -->
<g id="node8" class="node"><title>News_items_size</title>
<ellipse fill="none" stroke="black" cx="128.478" cy="-333.859" rx="27" ry="18"/>
<text text-anchor="middle" x="128.478" y="-330.159" font-family="Times,serif" font-size="14.00">size</text>
</g>
<!-- News_items&#45;&#45;News_items_size -->
<g id="edge10" class="edge"><title>News_items&#45;&#45;News_items_size</title>
<path fill="none" stroke="black" d="M112.014,-271.708C115.523,-284.957 120.249,-302.797 123.738,-315.965"/>
</g>
<!-- News_items_data -->
<g id="node10" class="node"><title>News_items_data</title>
<ellipse fill="none" stroke="black" cx="27" cy="-280.09" rx="27" ry="18"/>
<text text-anchor="middle" x="27" y="-276.39" font-family="Times,serif" font-size="14.00">data</text>
</g>
<!-- News_items&#45;&#45;News_items_data -->
<g id="edge12" class="edge"><title>News_items&#45;&#45;News_items_data</title>
<path fill="none" stroke="black" d="M63.8051,-267.869C59.5248,-269.29 55.2948,-270.695 51.312,-272.017"/>
</g>
<!-- News_thumbs -->
<g id="node15" class="node"><title>News_thumbs</title>
<polygon fill="none" stroke="black" points="203.025,-116.609 103.025,-116.609 103.025,-80.609 203.025,-80.609 203.025,-116.609"/>
<text text-anchor="middle" x="153.025" y="-94.909" font-family="Times,serif" font-size="14.00">News_thumbs</text>
</g>
<!-- News_thumbs&#45;&#45;Owners -->
<g id="edge44" class="edge"><title>News_thumbs&#45;&#45;Owners</title>
<path fill="none" stroke="black" d="M157.526,-116.654C161.519,-132.666 167.323,-155.936 171.313,-171.937"/>
</g>
<!-- News_thumbs_id -->
<g id="node17" class="node"><title>News_thumbs_id</title>
<ellipse fill="none" stroke="black" cx="223.122" cy="-59.1231" rx="27" ry="18"/>
<text text-anchor="middle" x="223.122" y="-55.4231" font-family="Times,serif" font-size="14.00">id</text>
</g>
<!-- News_thumbs&#45;&#45;News_thumbs_id -->
<g id="edge19" class="edge"><title>News_thumbs&#45;&#45;News_thumbs_id</title>
<path fill="none" stroke="black" d="M185.202,-80.484C190.96,-77.2402 196.823,-73.9377 202.162,-70.9301"/>
</g>
<!-- News_thumbs_owner -->
<g id="node19" class="node"><title>News_thumbs_owner</title>
<ellipse fill="none" stroke="black" cx="82.2302" cy="-50.1105" rx="35.1455" ry="18"/>
<text text-anchor="middle" x="82.2302" y="-46.4105" font-family="Times,serif" font-size="14.00">owner</text>
</g>
<!-- News_thumbs&#45;&#45;News_thumbs_owner -->
<g id="edge21" class="edge"><title>News_thumbs&#45;&#45;News_thumbs_owner</title>
<path fill="none" stroke="black" d="M126.664,-80.55C118.959,-75.2714 110.641,-69.5735 103.309,-64.5508"/>
</g>
<!-- News_thumbs_url -->
<g id="node21" class="node"><title>News_thumbs_url</title>
<ellipse fill="none" stroke="black" cx="187.634" cy="-19.8647" rx="27" ry="18"/>
<text text-anchor="middle" x="187.634" y="-16.1647" font-family="Times,serif" font-size="14.00">url</text>
</g>
<!-- News_thumbs&#45;&#45;News_thumbs_url -->
<g id="edge23" class="edge"><title>News_thumbs&#45;&#45;News_thumbs_url</title>
<path fill="none" stroke="black" d="M161.052,-80.3456C166.763,-67.3517 174.388,-50.0027 180.007,-37.2186"/>
</g>
<!-- News_thumbs_size -->
<g id="node23" class="node"><title>News_thumbs_size</title>
<ellipse fill="none" stroke="black" cx="129.917" cy="-18" rx="27" ry="18"/>
<text text-anchor="middle" x="129.917" y="-14.3" font-family="Times,serif" font-size="14.00">size</text>
</g>
<!-- News_thumbs&#45;&#45;News_thumbs_size -->
<g id="edge25" class="edge"><title>News_thumbs&#45;&#45;News_thumbs_size</title>
<path fill="none" stroke="black" d="M147.782,-80.3176C143.973,-67.0325 138.846,-49.1446 135.061,-35.9414"/>
</g>
<!-- News_thumbs_data -->
<g id="node25" class="node"><title>News_thumbs_data</title>
<ellipse fill="none" stroke="black" cx="73.3775" cy="-102.268" rx="27" ry="18"/>
<text text-anchor="middle" x="73.3775" y="-98.5676" font-family="Times,serif" font-size="14.00">data</text>
</g>
<!-- News_thumbs&#45;&#45;News_thumbs_data -->
<g id="edge27" class="edge"><title>News_thumbs&#45;&#45;News_thumbs_data</title>
<path fill="none" stroke="black" d="M102.583,-100.926C101.842,-100.96 101.107,-100.994 100.377,-101.027"/>
</g>
<!-- Item_contents -->
<g id="node31" class="node"><title>Item_contents</title>
<polygon fill="none" stroke="black" points="313.057,-238.381 216.557,-238.381 216.557,-202.381 313.057,-202.381 313.057,-238.381"/>
<text text-anchor="middle" x="264.807" y="-216.681" font-family="Times,serif" font-size="14.00">Item_contents</text>
</g>
<!-- Item_contents&#45;&#45;Owners -->
<g id="edge46" class="edge"><title>Item_contents&#45;&#45;Owners</title>
<path fill="none" stroke="black" d="M216.139,-203.738C213.055,-202.684 209.998,-201.638 207.027,-200.622"/>
</g>
<!-- Item_contents_id -->
<g id="node33" class="node"><title>Item_contents_id</title>
<ellipse fill="none" stroke="black" cx="342.805" cy="-250.453" rx="27" ry="18"/>
<text text-anchor="middle" x="342.805" y="-246.753" font-family="Times,serif" font-size="14.00">id</text>
</g>
<!-- Item_contents&#45;&#45;Item_contents_id -->
<g id="edge34" class="edge"><title>Item_contents&#45;&#45;Item_contents_id</title>
<path fill="none" stroke="black" d="M311.529,-238.395C314.125,-239.396 316.673,-240.378 319.125,-241.323"/>
</g>
<!-- Item_contents_owner -->
<g id="node35" class="node"><title>Item_contents_owner</title>
<ellipse fill="none" stroke="black" cx="306.64" cy="-295.818" rx="35.1455" ry="18"/>
<text text-anchor="middle" x="306.64" y="-292.118" font-family="Times,serif" font-size="14.00">owner</text>
</g>
<!-- Item_contents&#45;&#45;Item_contents_owner -->
<g id="edge36" class="edge"><title>Item_contents&#45;&#45;Item_contents_owner</title>
<path fill="none" stroke="black" d="M274.934,-238.642C281.656,-250.764 290.426,-266.579 297.038,-278.502"/>
</g>
<!-- Item_contents_url -->
<g id="node37" class="node"><title>Item_contents_url</title>
<ellipse fill="none" stroke="black" cx="310.01" cy="-153.944" rx="27" ry="18"/>
<text text-anchor="middle" x="310.01" y="-150.244" font-family="Times,serif" font-size="14.00">url</text>
</g>
<!-- Item_contents&#45;&#45;Item_contents_url -->
<g id="edge38" class="edge"><title>Item_contents&#45;&#45;Item_contents_url</title>
<path fill="none" stroke="black" d="M277.159,-202.227C283.851,-192.391 292.064,-180.321 298.603,-170.709"/>
</g>
<!-- Item_contents_size -->
<g id="node39" class="node"><title>Item_contents_size</title>
<ellipse fill="none" stroke="black" cx="346.218" cy="-192.631" rx="27" ry="18"/>
<text text-anchor="middle" x="346.218" y="-188.931" font-family="Times,serif" font-size="14.00">size</text>
</g>
<!-- Item_contents&#45;&#45;Item_contents_size -->
<g id="edge40" class="edge"><title>Item_contents&#45;&#45;Item_contents_size</title>
<path fill="none" stroke="black" d="M313.105,-203.918C316.118,-202.891 319.074,-201.884 321.903,-200.919"/>
</g>
<!-- Item_contents_data -->
<g id="node41" class="node"><title>Item_contents_data</title>
<ellipse fill="none" stroke="black" cx="253.637" cy="-298.768" rx="27" ry="18"/>
<text text-anchor="middle" x="253.637" y="-295.068" font-family="Times,serif" font-size="14.00">data</text>
</g>
<!-- Item_contents&#45;&#45;Item_contents_data -->
<g id="edge42" class="edge"><title>Item_contents&#45;&#45;Item_contents_data</title>
<path fill="none" stroke="black" d="M262.217,-238.562C260.412,-251.225 258.015,-268.044 256.214,-280.686"/>
</g>
</g>
</svg>
