<?xml version="1.0" encoding="UTF-8" standalone="no"?>
<!DOCTYPE svg PUBLIC "-//W3C//DTD SVG 1.1//EN"
 "http://www.w3.org/Graphics/SVG/1.1/DTD/svg11.dtd">
<!-- Generated by graphviz version 2.28.0 (20111001.1807)
 -->
<!-- Title: ER Pages: 1 -->
<svg width="287pt" height="263pt"
 viewBox="0.00 0.00 286.52 263.07" xmlns="http://www.w3.org/2000/svg" xmlns:xlink="http://www.w3.org/1999/xlink">
<g id="graph1" class="graph" transform="scale(1 1) rotate(0) translate(4 259.074)">
<title>ER</title>
<polygon fill="white" stroke="white" points="-4,5 -4,-259.074 283.522,-259.074 283.522,5 -4,5"/>
<!-- Owners -->
<g id="node1" class="node"><title>Owners</title>
<polygon fill="none" stroke="black" points="143.175,-177.596 81.1748,-177.596 81.1748,-141.596 143.175,-141.596 143.175,-177.596"/>
<text text-anchor="middle" x="112.175" y="-155.896" font-family="Times,serif" font-size="14.00">Owners</text>
</g>
<!-- Owners_id -->
<g id="node3" class="node"><title>Owners_id</title>
<ellipse fill="none" stroke="black" cx="143.414" cy="-237.074" rx="27" ry="18"/>
<text text-anchor="middle" x="143.414" y="-233.374" font-family="Times,serif" font-size="14.00">id</text>
</g>
<!-- Owners&#45;&#45;Owners_id -->
<g id="edge5" class="edge"><title>Owners&#45;&#45;Owners_id</title>
<path fill="none" stroke="black" d="M119.578,-177.957C124.666,-190.576 131.38,-207.229 136.386,-219.643"/>
</g>
<!-- Owners_name -->
<g id="node5" class="node"><title>Owners_name</title>
<ellipse fill="none" stroke="black" cx="33.4983" cy="-131.97" rx="30.3206" ry="18"/>
<text text-anchor="middle" x="33.4983" y="-128.27" font-family="Times,serif" font-size="14.00">name</text>
</g>
<!-- Owners&#45;&#45;Owners_name -->
<g id="edge7" class="edge"><title>Owners&#45;&#45;Owners_name</title>
<path fill="none" stroke="black" d="M81.0798,-148.678C74.0356,-146.204 66.6223,-143.601 59.799,-141.205"/>
</g>
<!-- Owners_last_updated -->
<g id="node7" class="node"><title>Owners_last_updated</title>
<ellipse fill="none" stroke="black" cx="57.4224" cy="-217.461" rx="57.2688" ry="18"/>
<text text-anchor="middle" x="57.4224" y="-213.761" font-family="Times,serif" font-size="14.00">last_updated</text>
</g>
<!-- Owners&#45;&#45;Owners_last_updated -->
<g id="edge9" class="edge"><title>Owners&#45;&#45;Owners_last_updated</title>
<path fill="none" stroke="black" d="M94.8508,-177.905C88.2089,-184.924 80.6503,-192.912 74.0729,-199.864"/>
</g>
<!-- Sections -->
<g id="node11" class="node"><title>Sections</title>
<polygon fill="none" stroke="black" points="204.555,-115.106 140.055,-115.106 140.055,-79.1057 204.555,-79.1057 204.555,-115.106"/>
<text text-anchor="middle" x="172.305" y="-93.4057" font-family="Times,serif" font-size="14.00">Sections</text>
</g>
<!-- Owners&#45;&#45;Sections -->
<g id="edge23" class="edge"><title>Owners&#45;&#45;Sections</title>
<path fill="none" stroke="black" d="M129.567,-141.521C137.475,-133.303 146.815,-123.596 154.743,-115.356"/>
</g>
<!-- Sections_id -->
<g id="node13" class="node"><title>Sections_id</title>
<ellipse fill="none" stroke="black" cx="237.163" cy="-148.9" rx="27" ry="18"/>
<text text-anchor="middle" x="237.163" y="-145.2" font-family="Times,serif" font-size="14.00">id</text>
</g>
<!-- Sections&#45;&#45;Sections_id -->
<g id="edge15" class="edge"><title>Sections&#45;&#45;Sections_id</title>
<path fill="none" stroke="black" d="M194.989,-115.221C203.025,-121.639 211.942,-128.759 219.499,-134.794"/>
</g>
<!-- Sections_owner -->
<g id="node15" class="node"><title>Sections_owner</title>
<ellipse fill="none" stroke="black" cx="119.215" cy="-33.3523" rx="35.1455" ry="18"/>
<text text-anchor="middle" x="119.215" y="-29.6523" font-family="Times,serif" font-size="14.00">owner</text>
</g>
<!-- Sections&#45;&#45;Sections_owner -->
<g id="edge17" class="edge"><title>Sections&#45;&#45;Sections_owner</title>
<path fill="none" stroke="black" d="M157.233,-79.0071C149.63,-69.8774 140.473,-58.8806 133.051,-49.9675"/>
</g>
<!-- Sections_size -->
<g id="node17" class="node"><title>Sections_size</title>
<ellipse fill="none" stroke="black" cx="251.522" cy="-75.1178" rx="27" ry="18"/>
<text text-anchor="middle" x="251.522" y="-71.4178" font-family="Times,serif" font-size="14.00">size</text>
</g>
<!-- Sections&#45;&#45;Sections_size -->
<g id="edge19" class="edge"><title>Sections&#45;&#45;Sections_size</title>
<path fill="none" stroke="black" d="M204.983,-88.0354C212.143,-86.048 219.615,-83.9741 226.423,-82.0844"/>
</g>
<!-- Sections_data -->
<g id="node19" class="node"><title>Sections_data</title>
<ellipse fill="none" stroke="black" cx="193.888" cy="-18" rx="27" ry="18"/>
<text text-anchor="middle" x="193.888" y="-14.3" font-family="Times,serif" font-size="14.00">data</text>
</g>
<!-- Sections&#45;&#45;Sections_data -->
<g id="edge21" class="edge"><title>Sections&#45;&#45;Sections_data</title>
<path fill="none" stroke="black" d="M177.31,-78.7584C180.822,-65.8874 185.495,-48.763 188.984,-35.975"/>
</g>
</g>
</svg>
